<svg width="48" height="48" viewBox="0 0 48 48" fill="none" xmlns="http://www.w3.org/2000/svg">
<path d="M21.996 13C21.996 14.3261 21.4692 15.5979 20.5315 16.5355C19.5939 17.4732 18.3221 18 16.996 18C15.6699 18 14.3981 17.4732 13.4605 16.5355C12.5228 15.5979 11.996 14.3261 11.996 13C11.996 11.6739 12.5228 10.4021 13.4605 9.46447C14.3981 8.52678 15.6699 8 16.996 8C18.3221 8 19.5939 8.52678 20.5315 9.46447C21.4692 10.4021 21.996 11.6739 21.996 13ZM30.446 21.106C30.2584 21.012 30.0461 20.9795 29.839 21.0128C29.6319 21.0462 29.4405 21.1439 29.292 21.292L21.872 30.712L16.552 25.168C16.3599 25.0401 16.1295 24.9826 15.8999 25.0052C15.6702 25.0278 15.4555 25.1291 15.292 25.292L8 34V38C8 38.5304 8.21071 39.0391 8.58579 39.4142C8.96086 39.7893 9.46957 40 10 40H38C38.2626 40 38.5227 39.9483 38.7654 39.8478C39.008 39.7472 39.2285 39.5999 39.4142 39.4142C39.5999 39.2285 39.7472 39.008 39.8478 38.7654C39.9483 38.5227 40 38.2626 40 38V29L30.446 21.106Z" fill="black"/>
</svg>
