<svg width="49" height="48" viewBox="0 0 49 48" fill="none" xmlns="http://www.w3.org/2000/svg">
<path d="M20.7799 4.01196C22.1939 4.01196 22.9999 5.41996 22.9999 6.83396V15.5H21.2099C20.8618 14.6394 20.2253 13.9268 19.4094 13.4841C18.5934 13.0414 17.6489 12.8963 16.7378 13.0736C15.8266 13.2509 15.0054 13.7396 14.4151 14.456C13.8247 15.1723 13.5018 16.0717 13.5018 17C13.5018 17.9282 13.8247 18.8276 14.4151 19.5439C15.0054 20.2603 15.8266 20.749 16.7378 20.9263C17.6489 21.1036 18.5934 20.9585 19.4094 20.5158C20.2253 20.0732 20.8618 19.3605 21.2099 18.5H22.9999V40.296C22.9999 41.488 22.4959 42.674 21.4339 43.216C20.4709 43.7204 19.401 43.9865 18.3139 43.992C15.2939 43.992 13.0479 42.464 11.6019 40.656C10.6005 39.4083 9.9022 37.9452 9.56194 36.382C8.62797 36.1064 7.76298 35.636 7.02394 35.002C5.60394 33.78 4.49994 31.82 4.49994 28.932C4.49994 27.422 4.60794 26.106 4.87994 25H13.2999C14.6559 25 15.7799 26 15.9699 27.302C15.1128 27.6566 14.4055 28.2981 13.9692 29.1167C13.5329 29.9353 13.3946 30.8801 13.5781 31.7894C13.7616 32.6987 14.2554 33.5159 14.975 34.1012C15.6947 34.6866 16.5954 35.0036 17.523 34.9981C18.4506 34.9925 19.3474 34.6648 20.06 34.0709C20.7726 33.477 21.2566 32.6539 21.4292 31.7425C21.6018 30.8311 21.4523 29.888 21.0062 29.0746C20.5602 28.2613 19.8453 27.6283 18.9839 27.284C18.8789 25.8482 18.2344 24.5054 17.1801 23.5252C16.1257 22.5451 14.7395 22.0002 13.2999 22H6.57994C6.87943 21.7524 7.21281 21.549 7.56994 21.396C7.36378 20.6611 7.2443 19.9046 7.21394 19.142C7.14794 17.672 7.36794 16.142 7.80394 14.78C8.23594 13.44 8.91994 12.134 9.87994 11.232C10.4821 10.6452 11.2451 10.2505 12.0719 10.098C12.4699 8.41796 13.4839 7.02996 14.7779 6.02396C16.4399 4.72796 18.6179 4.01196 20.7779 4.01196H20.7799ZM25.9999 34H29.2999C30.8117 34 32.2615 33.3994 33.3304 32.3305C34.3994 31.2615 34.9999 29.8117 34.9999 28.3V24.71C35.8605 24.3619 36.5731 23.7253 37.0158 22.9094C37.4585 22.0935 37.6036 21.149 37.4263 20.2378C37.249 19.3266 36.7603 18.5055 36.0439 17.9151C35.3276 17.3247 34.4282 17.0019 33.4999 17.0019C32.5717 17.0019 31.6723 17.3247 30.956 17.9151C30.2396 18.5055 29.7509 19.3266 29.5736 20.2378C29.3963 21.149 29.5414 22.0935 29.9841 22.9094C30.4267 23.7253 31.1394 24.3619 31.9999 24.71V28.3C31.9999 29.016 31.7155 29.7028 31.2091 30.2092C30.7028 30.7155 30.016 31 29.2999 31H25.9999V6.83396C25.9999 5.41996 26.8059 4.01196 28.2199 4.01196C30.3839 4.01196 32.5599 4.72796 34.2219 6.02396C35.5159 7.02996 36.5299 8.41996 36.9279 10.098C37.7679 10.238 38.5159 10.666 39.1199 11.232C40.0799 12.134 40.7639 13.438 41.1959 14.78C41.6319 16.142 41.8519 17.672 41.7859 19.142C41.7519 19.894 41.6419 20.662 41.4299 21.396L41.5619 21.456C42.3019 21.804 42.9019 22.35 43.3499 23.076C44.1999 24.446 44.4999 26.418 44.4999 28.932C44.4999 31.822 43.3959 33.784 41.9759 35.002C41.2363 35.6363 40.3706 36.1066 39.4359 36.382C39.0962 37.945 38.3986 39.408 37.3979 40.656C35.9519 42.464 33.7059 43.992 30.6839 43.992C29.597 43.9871 28.5271 43.7217 27.5639 43.218C26.5039 42.674 25.9999 41.488 25.9999 40.296V34ZM16.4999 17C16.4999 16.7347 16.6053 16.4804 16.7928 16.2929C16.9804 16.1053 17.2347 16 17.4999 16C17.7652 16 18.0195 16.1053 18.207 16.2929C18.3946 16.4804 18.4999 16.7347 18.4999 17C18.4999 17.2652 18.3946 17.5195 18.207 17.7071C18.0195 17.8946 17.7652 18 17.4999 18C17.2347 18 16.9804 17.8946 16.7928 17.7071C16.6053 17.5195 16.4999 17.2652 16.4999 17ZM17.4999 30C17.2347 30 16.9804 30.1053 16.7928 30.2929C16.6053 30.4804 16.4999 30.7347 16.4999 31C16.4999 31.2652 16.6053 31.5195 16.7928 31.7071C16.9804 31.8946 17.2347 32 17.4999 32C17.7652 32 18.0195 31.8946 18.207 31.7071C18.3946 31.5195 18.4999 31.2652 18.4999 31C18.4999 30.7347 18.3946 30.4804 18.207 30.2929C18.0195 30.1053 17.7652 30 17.4999 30ZM32.4999 21C32.4999 21.2652 32.6053 21.5195 32.7928 21.7071C32.9804 21.8946 33.2347 22 33.4999 22C33.7652 22 34.0195 21.8946 34.207 21.7071C34.3946 21.5195 34.4999 21.2652 34.4999 21C34.4999 20.7347 34.3946 20.4804 34.207 20.2929C34.0195 20.1053 33.7652 20 33.4999 20C33.2347 20 32.9804 20.1053 32.7928 20.2929C32.6053 20.4804 32.4999 20.7347 32.4999 21Z" fill="black"/>
</svg>
