<svg width="49" height="48" viewBox="0 0 49 48" fill="white" xmlns="http://www.w3.org/2000/svg">
<path d="M35.6078 27.8592C34.1694 28.7335 32.5173 29.1934 30.8341 29.1879C29.4239 29.1767 28.0296 28.8883 26.7308 28.3391C25.7297 29.7523 25.1939 31.4424 25.198 33.1743V37.597C25.1984 37.7615 25.1649 37.9243 25.0997 38.0753C25.0345 38.2263 24.9389 38.3623 24.819 38.4748C24.699 38.5873 24.5572 38.674 24.4023 38.7294C24.2474 38.7848 24.0828 38.8077 23.9187 38.7968C23.6103 38.77 23.3235 38.6275 23.1157 38.3981C22.9079 38.1686 22.7946 37.8691 22.7984 37.5595V35.6938L17.0064 29.9018C16.1454 30.223 15.2348 30.391 14.3158 30.3982C13.0508 30.4014 11.8094 30.0552 10.7284 29.3979C7.46048 27.4122 5.70128 22.8425 6.04172 17.169C6.05886 16.8754 6.18319 16.5984 6.39109 16.3905C6.599 16.1826 6.87601 16.0583 7.16953 16.0411C12.8431 15.7067 17.4128 17.4599 19.3925 20.7279C20.1703 22.0088 20.5098 23.5081 20.3598 24.9991C20.3505 25.1147 20.3079 25.225 20.2372 25.3168C20.1665 25.4087 20.0707 25.4781 19.9614 25.5166C19.8521 25.5552 19.734 25.5612 19.6213 25.5341C19.5086 25.5069 19.4062 25.4477 19.3265 25.3636L16.447 22.3491C16.2201 22.1336 15.9181 22.0152 15.6052 22.0192C15.2924 22.0232 14.9934 22.1493 14.7722 22.3705C14.551 22.5918 14.4249 22.8907 14.4209 23.2036C14.4169 23.5164 14.5353 23.8185 14.7508 24.0453L22.8314 32.3314C22.8404 32.2144 22.8509 32.0974 22.8629 31.982C23.1253 29.7575 24.1069 27.6795 25.6584 26.064L33.2457 18.0463C33.4708 17.8214 33.5973 17.5162 33.5975 17.198C33.5976 16.8797 33.4713 16.5745 33.2464 16.3493C33.0215 16.1242 32.7163 15.9977 32.3981 15.9975C32.0798 15.9974 31.7746 16.1237 31.5494 16.3486L24.2007 24.1203C24.1271 24.1982 24.034 24.255 23.9311 24.2848C23.8282 24.3145 23.7191 24.3162 23.6153 24.2895C23.5116 24.2629 23.4168 24.2089 23.3409 24.1333C23.265 24.0576 23.2108 23.963 23.1838 23.8593C22.473 21.2378 22.7864 18.6282 24.1437 16.3876C26.8222 11.9663 33.0552 9.59972 40.8179 10.0556C41.1114 10.0728 41.3884 10.1971 41.5963 10.405C41.8042 10.6129 41.9286 10.8899 41.9457 11.1835C42.3956 18.9477 40.029 25.1806 35.6078 27.8592Z" fill="inherit"/>
</svg>
