<svg width="48" height="48" viewBox="0 0 48 48" fill="black" xmlns="http://www.w3.org/2000/svg">
<path fill-rule="evenodd" clip-rule="evenodd" d="M10.7141 14.9829C10.703 14.9982 10.6968 15.0151 10.6952 15.0323C10.3424 15.5161 9.51422 16.9122 10.8313 17.9118C12.0722 18.8535 13.204 18.0901 13.6635 17.6839C13.704 17.686 13.7459 17.6707 13.7726 17.6402C22.7867 7.33274 31.1229 12.9673 34.8953 18.1534C35.2959 18.7041 34.8298 19.3982 34.0915 19.3982H31.1429C31.0318 19.3982 30.9783 19.5192 31.0598 19.5863L39.1273 26.2387C39.1931 26.2929 39.3 26.2678 39.3259 26.1914C39.7644 24.9 40 23.5305 40 22.1121C40 14.3182 32.885 8 24.1082 8C18.5032 8 13.5438 11.0843 10.7141 14.9829ZM37.2859 32.8727C37.297 32.8571 37.3032 32.8398 37.3048 32.8223C37.6576 32.3285 38.4858 30.9034 37.1687 29.8833C35.9278 28.922 34.796 29.7012 34.3365 30.1158C34.296 30.1136 34.2541 30.1293 34.2274 30.1604C25.2133 40.681 16.8771 34.9299 13.1047 29.6367C12.7041 29.0746 13.1702 28.366 13.9085 28.366H16.8571C16.9682 28.366 17.0217 28.2426 16.9402 28.1741L8.8727 21.3842C8.8069 21.3288 8.69997 21.3545 8.67406 21.4324C8.23564 22.7505 8 24.1484 8 25.5961C8 33.5511 15.115 40 23.8918 40C29.4968 40 34.4562 36.8519 37.2859 32.8727Z"/>
</svg>
