<svg width="49" height="48" viewBox="0 0 49 48" fill="none" xmlns="http://www.w3.org/2000/svg">
<path d="M23 31.154V13.854L18.34 18.514L16.924 17.076L24 10L31.076 17.076L29.662 18.516L25 13.854V31.154H23ZM13.23 38C12.31 38 11.542 37.692 10.926 37.076C10.3087 36.4587 10 35.69 10 34.77V29.924H12V34.77C12 35.0767 12.128 35.3587 12.384 35.616C12.6413 35.872 12.9233 36 13.23 36H34.77C35.0767 36 35.3587 35.872 35.616 35.616C35.872 35.3587 36 35.0767 36 34.77V29.924H38V34.77C38 35.69 37.692 36.458 37.076 37.074C36.4587 37.6913 35.69 38 34.77 38H13.23Z" fill="black"/>
</svg>
