<svg width="49" height="48" viewBox="0 0 49 48" fill="none" xmlns="http://www.w3.org/2000/svg">
<path fill-rule="evenodd" clip-rule="evenodd" d="M30.4286 13H16.7143C15.1988 13 13.7453 13.602 12.6737 14.6737C11.602 15.7453 11 17.1988 11 18.7143V30.1429C11 31.6584 11.602 33.1118 12.6737 34.1835C13.7453 35.2551 15.1988 35.8571 16.7143 35.8571H30.4286C31.9441 35.8571 33.3975 35.2551 34.4692 34.1835C35.5408 33.1118 36.1429 31.6584 36.1429 30.1429V18.7143C36.1429 17.1988 35.5408 15.7453 34.4692 14.6737C33.3975 13.602 31.9441 13 30.4286 13ZM13.2857 18.7143C13.2857 17.805 13.6469 16.9329 14.2899 16.2899C14.9329 15.6469 15.805 15.2857 16.7143 15.2857H30.4286C31.3379 15.2857 32.21 15.6469 32.8529 16.2899C33.4959 16.9329 33.8571 17.805 33.8571 18.7143V30.1429C33.8571 31.0522 33.4959 31.9242 32.8529 32.5672C32.21 33.2102 31.3379 33.5714 30.4286 33.5714H16.7143C15.805 33.5714 14.9329 33.2102 14.2899 32.5672C13.6469 31.9242 13.2857 31.0522 13.2857 30.1429V18.7143Z" fill="black"/>
<path fill-rule="evenodd" clip-rule="evenodd" d="M41.2331 15.4686L34.4308 19.8937C34.2727 19.9963 34.1423 20.1363 34.0514 20.3014C33.9605 20.4665 33.9118 20.6515 33.9097 20.84L33.848 26.8103C33.8456 27.0028 33.892 27.1928 33.9827 27.3626C34.0734 27.5325 34.2055 27.6766 34.3668 27.7817L41.2331 32.2434C41.4056 32.3559 41.6052 32.4196 41.8109 32.4279C42.0166 32.4362 42.2208 32.3888 42.4017 32.2907C42.5827 32.1926 42.7339 32.0475 42.8392 31.8706C42.9445 31.6937 43 31.4916 43 31.2857V16.4286C43.0004 16.2225 42.9452 16.0202 42.84 15.843C42.7349 15.6657 42.5838 15.5202 42.4028 15.4219C42.2217 15.3235 42.0174 15.2759 41.8115 15.2841C41.6056 15.2923 41.4058 15.3561 41.2331 15.4686ZM40.7143 29.1829L36.1406 26.2092L36.1886 21.4777L40.7143 18.536V29.1829Z" fill="black"/>
</svg>
