<svg width="128" height="128" viewBox="0 0 128 128" fill="none" xmlns="http://www.w3.org/2000/svg">
<g filter="url(#filter0_i_118_134)">
<path d="M61.36 50.8H96.56C94.58 45.74 91.5543 41.3943 87.4828 37.7628C83.4114 34.1313 78.7371 31.5837 73.46 30.12L61.36 50.8ZM51.24 59.6L68.84 29.24C68.0334 29.0933 67.2267 28.9833 66.42 28.91C65.6134 28.8367 64.8067 28.8 64 28.8C59.16 28.8 54.65 29.7167 50.47 31.55C46.29 33.3833 42.5867 35.84 39.36 38.92L51.24 59.6ZM29.9 72.8H53.88L36.28 42.44C33.9334 45.4467 32.1 48.7657 30.78 52.3972C29.46 56.0287 28.8 59.8963 28.8 64C28.8 65.54 28.8924 67.0243 29.0772 68.4528C29.262 69.8813 29.5363 71.3304 29.9 72.8ZM54.54 97.88L66.42 77.2H31.44C33.42 82.26 36.4458 86.6057 40.5172 90.2372C44.5887 93.8687 49.263 96.4163 54.54 97.88ZM64 99.2C68.84 99.2 73.35 98.2833 77.53 96.45C81.71 94.6167 85.4134 92.16 88.64 89.08L76.76 68.4L59.16 98.76C59.9667 98.9067 60.7543 99.0167 61.5228 99.09C62.2914 99.1633 63.1171 99.2 64 99.2ZM91.72 85.56C94.0667 82.5533 95.9 79.2343 97.22 75.6028C98.54 71.9713 99.2 68.1037 99.2 64C99.2 62.46 99.1076 60.9757 98.9228 59.5472C98.738 58.1187 98.4638 56.6696 98.1 55.2H74.12L91.72 85.56ZM64 108C57.9867 108 52.3034 106.844 46.95 104.533C41.5967 102.221 36.921 99.068 32.9228 95.0728C28.9276 91.0776 25.7743 86.4033 23.4628 81.05C21.1514 75.6967 19.9971 70.0133 20 64C20 57.9133 21.1558 52.2109 23.4672 46.8928C25.7787 41.5747 28.932 36.9195 32.9272 32.9272C36.9224 28.9291 41.5952 25.7757 46.9456 23.4672C52.296 21.1587 57.9808 20.0029 64 20C70.0867 20 75.7891 21.1557 81.1072 23.4672C86.4254 25.7787 91.0806 28.932 95.0728 32.9272C99.071 36.9224 102.224 41.5791 104.533 46.8972C106.841 52.2153 107.997 57.9163 108 64C108 70.0133 106.844 75.6967 104.533 81.05C102.221 86.4033 99.068 91.0791 95.0728 95.0772C91.0776 99.0724 86.421 102.226 81.1028 104.537C75.7847 106.849 70.0838 108.003 64 108Z" fill="#4AD42B"/>
</g>
<defs>
<filter id="filter0_i_118_134" x="0" y="0" width="130" height="130" filterUnits="userSpaceOnUse" color-interpolation-filters="sRGB">
<feFlood flood-opacity="0" result="BackgroundImageFix"/>
<feBlend mode="normal" in="SourceGraphic" in2="BackgroundImageFix" result="shape"/>
<feColorMatrix in="SourceAlpha" type="matrix" values="0 0 0 0 0 0 0 0 0 0 0 0 0 0 0 0 0 0 127 0" result="hardAlpha"/>
<feOffset dx="2" dy="2"/>
<feGaussianBlur stdDeviation="3"/>
<feComposite in2="hardAlpha" operator="arithmetic" k2="-1" k3="1"/>
<feColorMatrix type="matrix" values="0 0 0 0 0 0 0 0 0 0 0 0 0 0 0 0 0 0 0.375 0"/>
<feBlend mode="normal" in2="shape" result="effect1_innerShadow_118_134"/>
</filter>
</defs>
</svg>
