<svg width="96" height="96" viewBox="0 0 96 96" fill="none" xmlns="http://www.w3.org/2000/svg">
<g filter="url(#filter0_i_1509_607)">
<path d="M45.6 36H77.6C75.8 31.4 73.0493 27.4493 69.348 24.148C65.6467 20.8467 61.3973 18.5307 56.6 17.2L45.6 36ZM36.4 44L52.4 16.4C51.6667 16.2667 50.9333 16.1667 50.2 16.1C49.4667 16.0333 48.7333 16 48 16C43.6 16 39.5 16.8333 35.7 18.5C31.9 20.1667 28.5333 22.4 25.6 25.2L36.4 44ZM17 56H38.8L22.8 28.4C20.6667 31.1333 19 34.1507 17.8 37.452C16.6 40.7533 16 44.2693 16 48C16 49.4 16.084 50.7493 16.252 52.048C16.42 53.3467 16.6693 54.664 17 56ZM39.4 78.8L50.2 60H18.4C20.2 64.6 22.9507 68.5507 26.652 71.852C30.3533 75.1533 34.6027 77.4693 39.4 78.8ZM48 80C52.4 80 56.5 79.1667 60.3 77.5C64.1 75.8333 67.4667 73.6 70.4 70.8L59.6 52L43.6 79.6C44.3333 79.7333 45.0493 79.8333 45.748 79.9C46.4467 79.9667 47.1973 80 48 80ZM73.2 67.6C75.3333 64.8667 77 61.8493 78.2 58.548C79.4 55.2467 80 51.7307 80 48C80 46.6 79.916 45.2507 79.748 43.952C79.58 42.6533 79.3307 41.336 79 40H57.2L73.2 67.6ZM48 88C42.5333 88 37.3667 86.9493 32.5 84.848C27.6333 82.7467 23.3827 79.88 19.748 76.248C16.116 72.616 13.2493 68.3667 11.148 63.5C9.04667 58.6333 7.99734 53.4667 8.00001 48C8.00001 42.4667 9.05067 37.2827 11.152 32.448C13.2533 27.6133 16.12 23.3813 19.752 19.752C23.384 16.1173 27.632 13.2507 32.496 11.152C37.36 9.05333 42.528 8.00267 48 8C53.5333 8 58.7173 9.05067 63.552 11.152C68.3867 13.2533 72.6187 16.12 76.248 19.752C79.8827 23.384 82.7493 27.6173 84.848 32.452C86.9467 37.2867 87.9973 42.4693 88 48C88 53.4667 86.9493 58.6333 84.848 63.5C82.7467 68.3667 79.88 72.6173 76.248 76.252C72.616 79.884 68.3827 82.7507 63.548 84.852C58.7133 86.9533 53.5307 88.0027 48 88Z" fill="#10B981"/>
</g>
<defs>
<filter id="filter0_i_1509_607" x="0" y="0" width="98" height="98" filterUnits="userSpaceOnUse" color-interpolation-filters="sRGB">
<feFlood flood-opacity="0" result="BackgroundImageFix"/>
<feBlend mode="normal" in="SourceGraphic" in2="BackgroundImageFix" result="shape"/>
<feColorMatrix in="SourceAlpha" type="matrix" values="0 0 0 0 0 0 0 0 0 0 0 0 0 0 0 0 0 0 127 0" result="hardAlpha"/>
<feOffset dx="2" dy="2"/>
<feGaussianBlur stdDeviation="3"/>
<feComposite in2="hardAlpha" operator="arithmetic" k2="-1" k3="1"/>
<feColorMatrix type="matrix" values="0 0 0 0 0 0 0 0 0 0 0 0 0 0 0 0 0 0 0.375 0"/>
<feBlend mode="normal" in2="shape" result="effect1_innerShadow_1509_607"/>
</filter>
</defs>
</svg>
